<?xml version="1.0" standalone="no"?>
<!DOCTYPE svg PUBLIC "-//W3C//DTD SVG 20010904//EN"
 "http://www.w3.org/TR/2001/REC-SVG-20010904/DTD/svg10.dtd">
<svg version="1.0" xmlns="http://www.w3.org/2000/svg"
 width="1280.000000pt" height="640.000000pt" viewBox="0 0 1280.000000 640.000000"
 preserveAspectRatio="xMidYMid meet">
<metadata>
Created by potrace 1.15, written by Peter Selinger 2001-2017
</metadata>
<g transform="translate(0.000000,640.000000) scale(0.100000,-0.100000)"
fill="#000000" stroke="none">
<path d="M4830 5104 c-8 -1 -62 -10 -118 -19 -118 -19 -310 -64 -425 -100
-456 -144 -828 -360 -1166 -678 -384 -362 -781 -623 -1376 -908 -391 -188
-959 -401 -1433 -539 -61 -18 -110 -35 -108 -38 8 -8 402 109 671 200 788 266
1438 579 1908 919 124 91 161 121 390 323 211 187 318 271 467 371 325 217
700 363 1170 454 52 10 82 19 65 19 -16 0 -37 -2 -45 -4z"/>
<path d="M6020 5041 c-58 -4 -115 -13 -127 -19 -45 -25 -37 -34 152 -182 50
-39 175 -148 279 -243 217 -198 243 -217 340 -249 65 -21 88 -23 286 -23 118
0 393 6 610 14 430 15 1361 10 1615 -8 77 -6 172 -13 210 -15 l70 -6 -95 46
c-310 151 -1261 509 -1495 564 -127 30 -552 82 -910 110 -163 13 -794 21 -935
11z"/>
<path d="M5005 4930 c-200 -23 -450 -85 -680 -169 -128 -46 -175 -72 -175 -93
0 -4 38 -48 83 -98 95 -100 181 -222 252 -355 27 -49 49 -91 50 -93 2 -2 203
5 1393 52 183 7 334 15 337 17 5 6 -82 145 -142 226 -196 263 -457 440 -736
497 -96 20 -278 27 -382 16z"/>
<path d="M3815 4532 c-281 -144 -429 -265 -564 -460 -13 -18 -22 -35 -20 -37
2 -2 29 3 59 11 141 37 507 64 861 64 248 0 248 0 205 88 -51 103 -159 256
-237 335 -101 102 -104 102 -304 -1z"/>
<path d="M8470 4250 c-85 -4 -353 -13 -595 -19 -242 -7 -447 -14 -455 -15 -8
-2 44 -4 115 -5 522 -5 1279 -82 1930 -196 110 -19 270 -47 355 -61 189 -30
243 -46 340 -94 287 -144 582 -409 803 -720 23 -33 -158 332 -244 492 -70 129
-82 175 -54 198 32 26 457 60 763 60 165 0 387 -41 588 -110 48 -16 90 -28 92
-25 8 8 -225 114 -328 148 -394 132 -1086 240 -2125 332 -207 19 -937 28
-1185 15z"/>
<path d="M11205 3819 c-311 -13 -385 -22 -407 -49 -30 -37 -22 -82 35 -193 69
-132 180 -307 236 -369 24 -27 67 -61 95 -75 49 -26 59 -27 296 -34 271 -9
656 -27 767 -36 67 -5 73 -4 97 20 20 20 26 36 26 70 0 76 -99 390 -145 459
-53 80 -174 129 -458 188 -162 33 -183 34 -542 19z"/>
<path d="M9114 3806 c-43 -19 -101 -81 -107 -115 -18 -91 103 -260 234 -326
155 -79 352 -66 409 28 74 121 -60 296 -302 395 -76 31 -188 39 -234 18z"/>
<path d="M9435 3782 c183 -97 284 -203 285 -296 0 -43 -36 -112 -78 -146 -42
-35 -37 -38 17 -10 75 38 112 108 96 182 -27 125 -141 230 -314 289 -82 28
-84 23 -6 -19z"/>
<path d="M9849 3806 c-155 -88 -14 -406 230 -521 252 -120 421 -19 340 202
-18 47 -39 75 -113 149 -74 74 -108 99 -179 134 -78 39 -97 44 -170 47 -59 3
-89 -1 -108 -11z"/>
<path d="M10230 3743 c171 -137 257 -264 248 -365 -3 -29 -9 -62 -13 -73 -7
-18 -5 -17 18 4 15 13 34 43 43 66 13 35 14 49 4 86 -25 94 -128 194 -295 288
l-40 22 35 -28z"/>
<path d="M12274 3585 c-12 -30 8 -86 86 -241 100 -201 159 -267 176 -198 14
56 -61 248 -140 359 -60 83 -109 115 -122 80z"/>
<path d="M7515 3414 c164 -25 293 -109 386 -251 142 -218 192 -596 129 -983
-46 -279 -129 -471 -260 -600 -75 -74 -159 -121 -270 -149 l-75 -20 91 0 c436
-3 711 363 731 974 8 253 -28 436 -126 640 -82 170 -187 283 -326 350 -90 43
-153 55 -273 54 l-97 -1 90 -14z"/>
<path d="M3290 3059 c0 -15 110 -331 128 -365 25 -49 88 -107 139 -130 42 -18
154 -21 1638 -43 402 -6 847 -13 990 -15 l260 -5 -300 19 c-165 11 -534 33
-820 50 -1375 79 -1543 90 -1611 105 -139 30 -251 122 -366 300 -32 49 -58 87
-58 84z"/>
<path d="M3690 2360 c-140 -20 -264 -39 -275 -42 -24 -5 425 -16 1045 -24 427
-6 1527 10 1695 25 58 5 -10 9 -245 14 -398 8 -1439 43 -1865 61 -80 3 -151
-3 -355 -34z"/>
<path d="M8525 2330 c-6 -9 14 -481 21 -489 5 -6 241 -29 504 -50 723 -57
1400 -73 2070 -51 1026 34 1433 83 1597 193 88 59 103 135 48 254 l-25 55 -30
-25 c-159 -134 -1072 -215 -2005 -177 -431 17 -858 40 -939 50 -134 17 -232
73 -302 176 l-39 56 -52 -7 c-53 -6 -751 11 -810 20 -17 3 -34 1 -38 -5z"/>
<path d="M8302 2114 c-35 -240 -156 -465 -321 -597 -70 -55 -237 -147 -268
-147 -7 0 -13 -5 -13 -12 0 -8 53 -9 208 -5 243 8 378 21 429 42 52 22 293
238 293 262 0 6 -55 13 -122 17 -182 10 -168 -10 -174 246 -2 118 -8 230 -12
249 -7 30 -9 24 -20 -55z"/>
<path d="M2265 2065 c216 -40 2020 -317 2085 -321 41 -2 471 -5 955 -7 787 -3
859 -2 680 9 -811 51 -1854 142 -3225 279 -245 25 -474 47 -510 50 l-65 4 80
-14z"/>
<path d="M11750 1638 c-63 -4 -377 -9 -697 -11 -321 -1 -583 -5 -583 -8 0 -8
95 -90 163 -141 67 -50 207 -121 287 -146 161 -49 342 -49 520 -1 92 25 256
102 341 160 67 45 169 136 169 150 0 10 -37 10 -200 -3z"/>
</g>
</svg>
