<svg version="1.0" xmlns="http://www.w3.org/2000/svg" width="1706.667" height="853.333" viewBox="0 0 1280 640"><path d="M483 129.6c-.8.1-6.2 1-11.8 1.9-11.8 1.9-31 6.4-42.5 10-45.6 14.4-82.8 36-116.6 67.8-38.4 36.2-78.1 62.3-137.6 90.8-39.1 18.8-95.9 40.1-143.3 53.9-6.1 1.8-11 3.5-10.8 3.8.8.8 40.2-10.9 67.1-20 78.8-26.6 143.8-57.9 190.8-91.9 12.4-9.1 16.1-12.1 39-32.3 21.1-18.7 31.8-27.1 46.7-37.1 32.5-21.7 70-36.3 117-45.4 5.2-1 8.2-1.9 6.5-1.9-1.6 0-3.7.2-4.5.4zm119 6.3c-5.8.4-11.5 1.3-12.7 1.9-4.5 2.5-3.7 3.4 15.2 18.2 5 3.9 17.5 14.8 27.9 24.3 21.7 19.8 24.3 21.7 34 24.9 6.5 2.1 8.8 2.3 28.6 2.3 11.8 0 39.3-.6 61-1.4 43-1.5 136.1-1 161.5.8 7.7.6 17.2 1.3 21 1.5l7 .6-9.5-4.6c-31-15.1-126.1-50.9-149.5-56.4-12.7-3-55.2-8.2-91-11-16.3-1.3-79.4-2.1-93.5-1.1z"/><path d="M500.5 147c-20 2.3-45 8.5-68 16.9-12.8 4.6-17.5 7.2-17.5 9.3 0 .4 3.8 4.8 8.3 9.8 9.5 10 18.1 22.2 25.2 35.5 2.7 4.9 4.9 9.1 5 9.3.2.2 20.3-.5 139.3-5.2 18.3-.7 33.4-1.5 33.7-1.7.5-.6-8.2-14.5-14.2-22.6-19.6-26.3-45.7-44-73.6-49.7-9.6-2-27.8-2.7-38.2-1.6zm-119 39.8c-28.1 14.4-42.9 26.5-56.4 46-1.3 1.8-2.2 3.5-2 3.7.2.2 2.9-.3 5.9-1.1 14.1-3.7 50.7-6.4 86.1-6.4 24.8 0 24.8 0 20.5-8.8-5.1-10.3-15.9-25.6-23.7-33.5-10.1-10.2-10.4-10.2-30.4.1zM847 215c-8.5.4-35.3 1.3-59.5 1.9-24.2.7-44.7 1.4-45.5 1.5-.8.2 4.4.4 11.5.5 52.2.5 127.9 8.2 193 19.6 11 1.9 27 4.7 35.5 6.1 18.9 3 24.3 4.6 34 9.4 28.7 14.4 58.2 40.9 80.3 72 2.3 3.3-15.8-33.2-24.4-49.2-7-12.9-8.2-17.5-5.4-19.8 3.2-2.6 45.7-6 76.3-6 16.5 0 38.7 4.1 58.8 11 4.8 1.6 9 2.8 9.2 2.5.8-.8-22.5-11.4-32.8-14.8-39.4-13.2-108.6-24-212.5-33.2-20.7-1.9-93.7-2.8-118.5-1.5z"/><path d="M1120.5 258.1c-31.1 1.3-38.5 2.2-40.7 4.9-3 3.7-2.2 8.2 3.5 19.3 6.9 13.2 18 30.7 23.6 36.9 2.4 2.7 6.7 6.1 9.5 7.5 4.9 2.6 5.9 2.7 29.6 3.4 27.1.9 65.6 2.7 76.7 3.6 6.7.5 7.3.4 9.7-2 2-2 2.6-3.6 2.6-7 0-7.6-9.9-39-14.5-45.9-5.3-8-17.4-12.9-45.8-18.8-16.2-3.3-18.3-3.4-54.2-1.9zm-209.1 1.3c-4.3 1.9-10.1 8.1-10.7 11.5-1.8 9.1 10.3 26 23.4 32.6 15.5 7.9 35.2 6.6 40.9-2.8 7.4-12.1-6-29.6-30.2-39.5-7.6-3.1-18.8-3.9-23.4-1.8z"/><path d="M943.5 261.8c18.3 9.7 28.4 20.3 28.5 29.6 0 4.3-3.6 11.2-7.8 14.6-4.2 3.5-3.7 3.8 1.7 1 7.5-3.8 11.2-10.8 9.6-18.2-2.7-12.5-14.1-23-31.4-28.9-8.2-2.8-8.4-2.3-.6 1.9zm41.4-2.4c-15.5 8.8-1.4 40.6 23 52.1 25.2 12 42.1 1.9 34-20.2-1.8-4.7-3.9-7.5-11.3-14.9s-10.8-9.9-17.9-13.4c-7.8-3.9-9.7-4.4-17-4.7-5.9-.3-8.9.1-10.8 1.1z"/><path d="M1023 265.7c17.1 13.7 25.7 26.4 24.8 36.5-.3 2.9-.9 6.2-1.3 7.3-.7 1.8-.5 1.7 1.8-.4 1.5-1.3 3.4-4.3 4.3-6.6 1.3-3.5 1.4-4.9.4-8.6-2.5-9.4-12.8-19.4-29.5-28.8l-4-2.2 3.5 2.8zm204.4 15.8c-1.2 3 .8 8.6 8.6 24.1 10 20.1 15.9 26.7 17.6 19.8 1.4-5.6-6.1-24.8-14-35.9-6-8.3-10.9-11.5-12.2-8zm-475.9 17.1c16.4 2.5 29.3 10.9 38.6 25.1 14.2 21.8 19.2 59.6 12.9 98.3-4.6 27.9-12.9 47.1-26 60-7.5 7.4-15.9 12.1-27 14.9l-7.5 2h9.1c43.6.3 71.1-36.3 73.1-97.4.8-25.3-2.8-43.6-12.6-64-8.2-17-18.7-28.3-32.6-35-9-4.3-15.3-5.5-27.3-5.4l-9.7.1 9 1.4zM329 334.1c0 1.5 11 33.1 12.8 36.5 2.5 4.9 8.8 10.7 13.9 13 4.2 1.8 15.4 2.1 163.8 4.3 40.2.6 84.7 1.3 99 1.5l26 .5-30-1.9c-16.5-1.1-53.4-3.3-82-5-137.5-7.9-154.3-9-161.1-10.5-13.9-3-25.1-12.2-36.6-30-3.2-4.9-5.8-8.7-5.8-8.4zm40 69.9c-14 2-26.4 3.9-27.5 4.2-2.4.5 42.5 1.6 104.5 2.4 42.7.6 152.7-1 169.5-2.5 5.8-.5-1-.9-24.5-1.4-39.8-.8-143.9-4.3-186.5-6.1-8-.3-15.1.3-35.5 3.4zm483.5 3c-.6.9 1.4 48.1 2.1 48.9.5.6 24.1 2.9 50.4 5 72.3 5.7 140 7.3 207 5.1 102.6-3.4 143.3-8.3 159.7-19.3 8.8-5.9 10.3-13.5 4.8-25.4l-2.5-5.5-3 2.5c-15.9 13.4-107.2 21.5-200.5 17.7-43.1-1.7-85.8-4-93.9-5-13.4-1.7-23.2-7.3-30.2-17.6l-3.9-5.6-5.2.7c-5.3.6-75.1-1.1-81-2-1.7-.3-3.4-.1-3.8.5z"/><path d="M830.2 428.6c-3.5 24-15.6 46.5-32.1 59.7-7 5.5-23.7 14.7-26.8 14.7-.7 0-1.3.5-1.3 1.2 0 .8 5.3.9 20.8.5 24.3-.8 37.8-2.1 42.9-4.2 5.2-2.2 29.3-23.8 29.3-26.2 0-.6-5.5-1.3-12.2-1.7-18.2-1-16.8 1-17.4-24.6-.2-11.8-.8-23-1.2-24.9-.7-3-.9-2.4-2 5.5zm-603.7 4.9c21.6 4 202 31.7 208.5 32.1 4.1.2 47.1.5 95.5.7 78.7.3 85.9.2 68-.9-81.1-5.1-185.4-14.2-322.5-27.9-24.5-2.5-47.4-4.7-51-5l-6.5-.4 8 1.4zm948.5 42.7c-6.3.4-37.7.9-69.7 1.1-32.1.1-58.3.5-58.3.8 0 .8 9.5 9 16.3 14.1 6.7 5 20.7 12.1 28.7 14.6 16.1 4.9 34.2 4.9 52 .1 9.2-2.5 25.6-10.2 34.1-16 6.7-4.5 16.9-13.6 16.9-15 0-1-3.7-1-20 .3z"/></svg>